{"accessors":[{"name":"Clouds_Sphere-Mesh_0_positions","componentType":5126,"count":1986,"min":[-9.954719543457031,-9.973560333251953,-9.957029342651367],"max":[9.954719543457031,9.973566055297852,9.957021713256836],"type":"VEC3","bufferView":0,"byteOffset":0},{"name":"Clouds_Sphere-Mesh_0_normals","componentType":5126,"count":1986,"min":[-0.9995071887969971,-0.9994682669639587,-0.9986920952796936],"max":[0.9995071887969971,0.9994682669639587,0.9986920952796936],"type":"VEC3","bufferView":1,"byteOffset":0},{"name":"Clouds_Sphere-Mesh_0_indices","componentType":5123,"count":11904,"min":[0],"max":[1985],"type":"SCALAR","bufferView":2,"byteOffset":0},{"name":"Earth_Sphere.002-Mesh_0_positions","componentType":5126,"count":1986,"min":[-9.905195236206055,-9.923940658569336,-9.907492637634277],"max":[9.905193328857422,9.923946380615234,9.90748405456543],"type":"VEC3","bufferView":0,"byteOffset":23832},{"name":"Earth_Sphere.002-Mesh_0_normals","componentType":5126,"count":1986,"min":[-0.9995071887969971,-0.9994682669639587,-0.9986920952796936],"max":[0.9995071887969971,0.9994682669639587,0.9986920952796936],"type":"VEC3","bufferView":1,"byteOffset":23832},{"name":"Earth_Sphere.002-Mesh_0_indices","componentType":5123,"count":11904,"min":[0],"max":[1985],"type":"SCALAR","bufferView":2,"byteOffset":23808},{"name":"Atmo_Sphere.003-Mesh_0_positions","componentType":5126,"count":1986,"min":[-10.004494667053223,-10.023428916931152,-10.006814956665039],"max":[10.004493713378906,10.023433685302734,10.006808280944824],"type":"VEC3","bufferView":0,"byteOffset":47664},{"name":"Atmo_Sphere.003-Mesh_0_normals","componentType":5126,"count":1986,"min":[-0.9995071887969971,-0.9994682669639587,-0.9986920952796936],"max":[0.9995071887969971,0.9994682669639587,0.9986920952796936],"type":"VEC3","bufferView":1,"byteOffset":47664},{"name":"Atmo_Sphere.003-Mesh_0_indices","componentType":5123,"count":11904,"min":[0],"max":[1985],"type":"SCALAR","bufferView":2,"byteOffset":47616}],"asset":{"generator":"obj2gltf","version":"2.0"},"buffers":[{"name":"earth","byteLength":214416,"uri":"data:application/octet-stream;base64,"}],"bufferViews":[{"name":"bufferView_0","buffer":0,"byteLength":71496,"byteOffset":0,"byteStride":12,"target":34962},{"name":"bufferView_1","buffer":0,"byteLength":71496,"byteOffset":71496,"byteStride":12,"target":34962},{"name":"bufferView_2","buffer":0,"byteLength":71424,"byteOffset":142992,"target":34963}],"materials":[{"name":"Clouds","pbrMetallicRoughness":{"baseColorFactor":[0.64,0.64,0.64,1],"metallicFactor":0,"roughnessFactor":0.903921569},"emissiveFactor":[0,0,0],"alphaMode":"OPAQUE","doubleSided":false},{"name":"Earth","pbrMetallicRoughness":{"baseColorFactor":[0.64,0.64,0.64,1],"metallicFactor":0,"roughnessFactor":0.903921569},"emissiveFactor":[0,0,0],"alphaMode":"OPAQUE","doubleSided":false},{"name":"Atmo","pbrMetallicRoughness":{"baseColorFactor":[0.64,0.64,0.64,1],"metallicFactor":0,"roughnessFactor":0.903921569},"emissiveFactor":[0,0,0],"alphaMode":"OPAQUE","doubleSided":false}],"meshes":[{"name":"Clouds_Sphere-Mesh","primitives":[{"attributes":{"POSITION":0,"NORMAL":1},"indices":2,"material":0,"mode":4}]},{"name":"Earth_Sphere.002-Mesh","primitives":[{"attributes":{"POSITION":3,"NORMAL":4},"indices":5,"material":1,"mode":4}]},{"name":"Atmo_Sphere.003-Mesh","primitives":[{"attributes":{"POSITION":6,"NORMAL":7},"indices":8,"material":2,"mode":4}]}],"nodes":[{"name":"Clouds_Sphere","mesh":0},{"name":"Earth_Sphere.002","mesh":1},{"name":"Atmo_Sphere.003","mesh":2}],"scene":0,"scenes":[{"nodes":[0,1,2]}]}